HIERARCHY
ROOT root
{
	OFFSET 0.000000 0.000000 0.000000
	CHANNELS 6 Xposition Yposition Zposition Zrotation Yrotation Xrotation
	JOINT lhip
	{
		OFFSET 0.058581 -0.082280 -0.017664
		CHANNELS 3 Zrotation Yrotation Xrotation
		JOINT lknee
		{
			OFFSET 0.043451 -0.386469 0.008037
			CHANNELS 3 Zrotation Yrotation Xrotation
			JOINT lankle
			{
				OFFSET -0.014790 -0.426874 -0.037428
				CHANNELS 3 Zrotation Yrotation Xrotation
				JOINT ltoe
				{
					OFFSET 0.041054 -0.060286 0.122042
					CHANNELS 3 Zrotation Yrotation Xrotation
					End Site
					{
						OFFSET 0.000000 0.000000 0.000000
					}
				}
			}
		}
	}
	JOINT rhip
	{
		OFFSET -0.060310 -0.090513 -0.013543
		CHANNELS 3 Zrotation Yrotation Xrotation
		JOINT rknee
		{
			OFFSET -0.043257 -0.383688 -0.004843
			CHANNELS 3 Zrotation Yrotation Xrotation
			JOINT rankle
			{
				OFFSET 0.019056 -0.420046 -0.034562
				CHANNELS 3 Zrotation Yrotation Xrotation
				JOINT rtoe
				{
					OFFSET -0.034840 -0.062106 0.130323
					CHANNELS 3 Zrotation Yrotation Xrotation
					End Site
					{
						OFFSET 0.000000 0.000000 0.000000
					}
				}
			}
		}
	}
	JOINT lowerback
	{
		OFFSET 0.004439 0.124404 -0.038385
		CHANNELS 3 Zrotation Yrotation Xrotation
		JOINT upperback
		{
			OFFSET 0.004488 0.137956 0.026820
			CHANNELS 3 Zrotation Yrotation Xrotation
			JOINT chest
			{
				OFFSET -0.002265 0.056032 0.002855
				CHANNELS 3 Zrotation Yrotation Xrotation
				JOINT lowerneck
				{
					OFFSET -0.013390 0.211636 -0.033468
					CHANNELS 3 Zrotation Yrotation Xrotation
					JOINT upperneck
					{
						OFFSET 0.010113 0.088937 0.050410
						CHANNELS 3 Zrotation Yrotation Xrotation
						End Site
						{
							OFFSET 0.000000 0.000000 0.000000
						}
					}
				}
				JOINT lclavicle
				{
					OFFSET 0.071702 0.114000 -0.018898
					CHANNELS 3 Zrotation Yrotation Xrotation
					JOINT lshoulder
					{
						OFFSET 0.122921 0.045205 -0.019046
						CHANNELS 3 Zrotation Yrotation Xrotation
						JOINT lelbow
						{
							OFFSET 0.255332 -0.015649 -0.022946
							CHANNELS 3 Zrotation Yrotation Xrotation
							JOINT lwrist
							{
								OFFSET 0.265709 0.012698 -0.007375
								CHANNELS 3 Zrotation Yrotation Xrotation
								End Site
								{
									OFFSET 0.000000 0.000000 0.000000
								}
							}
						}
					}
				}
				JOINT rclavicle
				{
					OFFSET -0.082954 0.112472 -0.023707
					CHANNELS 3 Zrotation Yrotation Xrotation
					JOINT rshoulder
					{
						OFFSET -0.113228 0.046853 -0.008472
						CHANNELS 3 Zrotation Yrotation Xrotation
						JOINT relbow
						{
							OFFSET -0.260127 -0.014369 -0.031269
							CHANNELS 3 Zrotation Yrotation Xrotation
							JOINT rwrist
							{
								OFFSET -0.269108 0.006794 -0.006027
								CHANNELS 3 Zrotation Yrotation Xrotation
								End Site
								{
									OFFSET 0.000000 0.000000 0.000000
								}
							}
						}
					}
				}
			}
		}
	}
}
MOTION
Frames: 17
Frame Time: 0.033333
0.170427 2.099578 0.977066 -144.662858 5.264816 89.938717 -1.564179 -1.658631 -13.501286 -5.690844 4.195633 14.239183 10.053268 17.335026 -17.737153 0.000000 -0.000000 0.000000 -3.038145 -5.130172 -15.859431 5.826317 -15.921228 57.552356 9.421955 -7.962928 -10.449118 0.000000 -0.000000 0.000000 -1.620545 2.569899 11.531184 -0.611643 2.581216 -4.675176 0.109984 3.871991 -1.531165 2.342433 17.181555 -0.022715 -2.469507 15.860430 9.759162 -24.698447 4.502581 -2.608640 -45.012416 1.431257 0.623685 16.342247 -18.250562 -17.782286 14.906727 -5.646141 -4.232048 24.402306 7.239495 2.568932 42.013331 16.382975 17.127011 -0.097701 41.471648 14.110253 -1.337467 10.607732 3.228420 
0.170391 2.115585 0.980332 -142.814842 5.507757 89.536436 -1.089089 -1.253495 -11.445930 -5.425708 2.346108 13.291063 8.870422 16.850084 -18.157633 0.000000 -0.000000 0.000000 -3.688849 -4.191343 -17.964060 4.086875 -14.083249 54.386365 8.863140 -10.498779 -14.208242 0.000000 -0.000000 0.000000 -1.785313 1.782637 11.891161 -0.279368 2.523519 -4.932417 0.612449 3.305824 -1.304579 2.591827 17.256193 0.360566 -2.139968 15.683265 9.975840 -24.642137 3.971834 -2.265690 -43.962574 -0.323049 0.694779 17.158181 -20.002325 -18.655513 16.403036 -6.318367 -4.562936 24.726227 6.213093 2.432456 41.831029 14.709505 16.831278 -1.485656 41.113853 12.114274 -1.741971 10.416196 2.951063 
0.170606 2.130886 0.983303 -140.781369 5.633004 89.337589 -0.623674 -0.898448 -9.604062 -5.159699 0.607553 12.118032 7.727387 16.204082 -18.377660 0.000000 -0.000000 0.000000 -4.261125 -3.132297 -19.157740 3.324940 -11.732184 48.418308 9.175070 -11.152328 -16.785275 0.000000 -0.000000 0.000000 -1.904475 1.200809 12.136904 -0.110665 2.410560 -5.123689 0.973776 2.874737 -1.210801 2.658502 17.223446 0.639334 -1.687309 15.270042 9.936668 -24.621708 3.553349 -2.173407 -43.116150 -2.290798 0.784404 17.928784 -21.374786 -19.302124 17.441320 -7.155513 -4.635958 24.819952 5.082808 2.268080 41.966175 12.891962 16.756990 -2.528447 40.702404 10.801812 -1.993198 10.264877 2.480768 
0.170873 2.145543 0.985342 -138.544709 5.619644 89.395397 -0.200810 -0.658863 -8.185783 -4.936720 -0.969190 10.993300 6.788078 15.478204 -18.568602 0.000000 -0.000000 0.000000 -5.074882 -2.522070 -20.410689 2.644143 -9.755306 41.981868 9.709971 -11.050763 -17.159120 0.000000 -0.000000 0.000000 -1.903756 0.687899 12.128668 -0.106327 2.346113 -5.230334 1.140253 2.562742 -1.148759 2.482274 16.921949 0.718496 -1.215627 14.769929 9.714057 -24.553672 3.420551 -2.233875 -42.746508 -4.435675 0.975234 18.524913 -22.920936 -19.455472 18.174369 -7.618468 -4.828024 24.671990 3.784641 2.160485 42.461159 11.206500 16.825515 -3.326012 40.224060 9.928438 -2.058570 10.077189 2.187475 
0.170886 2.159705 0.986189 -136.208665 5.475803 89.607075 0.238432 -0.453197 -7.133554 -4.894397 -2.409035 10.066501 6.113083 14.711957 -18.770578 0.000000 -0.000000 0.000000 -6.164128 -2.680338 -21.997844 2.412844 -7.850624 36.278775 10.134380 -9.750840 -15.419799 0.000000 -0.000000 0.000000 -1.729393 0.264338 11.896837 -0.236218 2.312186 -5.148550 1.132193 2.310680 -1.203941 2.125798 16.463278 0.808775 -0.879680 14.213198 9.295501 -24.450655 3.437443 -2.288072 -42.911080 -6.241016 1.451178 18.875387 -25.021040 -19.116093 18.620848 -7.694535 -5.054449 24.386374 2.512702 2.341453 43.079714 9.780098 16.689263 -3.763070 39.778797 9.398521 -2.014196 9.783054 2.182237 
0.170647 2.173728 0.985703 -133.881702 5.209162 89.874242 0.746922 -0.213579 -6.372485 -5.099948 -3.777720 9.435496 5.655898 14.003767 -18.947610 0.000000 -0.000000 0.000000 -7.451000 -3.143960 -23.349181 3.180691 -5.109740 31.089957 10.742676 -6.647070 -12.079504 0.000000 -0.000000 0.000000 -1.438708 0.028813 11.525328 -0.427512 2.220819 -4.927943 0.997533 2.091148 -1.337902 1.649611 15.986109 1.005724 -0.617972 13.638797 8.723001 -24.343014 3.446840 -2.365397 -43.437514 -7.497447 2.150758 18.853087 -26.858926 -18.538825 19.357332 -7.569567 -5.141168 24.120625 1.424868 2.727043 43.623211 8.607922 16.330001 -3.766859 39.359529 9.192428 -2.203692 9.436313 2.207753 
0.170367 2.188190 0.984163 -131.515553 4.881697 90.124463 1.366971 0.060320 -5.755424 -5.428546 -5.107171 9.004121 5.303596 13.315446 -19.046500 0.000000 -0.000000 0.000000 -8.709271 -3.448773 -23.815006 4.298615 -1.333305 26.078408 11.742385 -2.554677 -7.509452 0.000000 -0.000000 0.000000 -1.142882 -0.030238 11.048797 -0.576435 2.006214 -4.566120 0.808267 1.901882 -1.530030 1.125881 15.503225 1.260395 -0.347647 13.110419 8.161923 -24.339306 3.429008 -2.367110 -44.094575 -8.210856 2.981713 18.485567 -28.114331 -17.787486 20.160753 -7.568221 -5.126914 24.024103 0.546804 3.115095 43.994198 7.648907 15.972971 -3.541519 38.925447 9.221324 -2.453416 9.129066 2.150657 
0.170291 2.203401 0.981906 -129.076513 4.521471 90.293047 2.033937 0.237841 -5.237631 -5.716200 -6.425422 8.841716 4.965621 12.692632 -19.155608 0.000000 -0.000000 0.000000 -9.817039 -3.560982 -23.390347 4.845244 2.230943 21.757148 13.226321 0.734522 -2.309832 0.000000 -0.000000 0.000000 -0.951154 -0.028483 10.614107 -0.663422 1.712776 -4.238588 0.639279 1.747764 -1.682967 0.632109 14.968943 1.505952 -0.142099 12.749597 7.669915 -24.498727 3.502149 -2.230055 -44.698881 -8.589763 3.712828 17.666347 -28.653397 -16.656659 20.534986 -7.844233 -5.033887 24.079777 -0.176112 3.358740 44.321624 6.931610 15.812649 -3.363205 38.417798 9.289982 -2.494809 8.915407 2.225509 
0.170511 2.219429 0.979256 -126.602742 4.131665 90.305186 2.670550 0.155625 -4.834364 -5.916782 -7.796751 9.165024 4.564709 12.198822 -19.488778 0.000000 -0.000000 0.000000 -10.758083 -3.537288 -22.346396 4.895539 4.331387 19.138849 14.946534 2.488128 1.492406 0.000000 -0.000000 0.000000 -0.901323 -0.067297 10.409517 -0.705613 1.408004 -4.112640 0.474405 1.657842 -1.733073 0.367874 14.495800 1.718133 -0.144077 12.408222 7.335067 -24.744076 3.737365 -2.026733 -45.236364 -8.728933 4.205013 16.447554 -28.443083 -14.834171 19.773587 -8.430854 -4.610382 24.224940 -0.766197 3.410778 44.789969 6.450082 15.768205 -3.320465 37.839721 9.292868 -2.268843 8.792916 2.405375 
0.171125 2.236460 0.976745 -124.274574 3.761196 90.124833 3.319098 -0.191499 -4.448840 -6.025920 -9.191050 9.899902 4.005416 11.871939 -20.119252 0.000000 -0.000000 0.000000 -11.303128 -3.227606 -20.885541 4.839454 5.089103 18.442351 16.083773 3.183271 2.034703 0.000000 -0.000000 0.000000 -0.960559 -0.087510 10.425228 -0.724483 1.162659 -4.184782 0.282746 1.650748 -1.618663 0.473084 14.265880 1.838368 -0.358726 11.811770 7.295919 -24.927517 4.095149 -1.978220 -45.735694 -8.546104 4.515154 14.973492 -27.501072 -12.441232 18.341920 -9.161516 -3.820652 24.462712 -1.197560 3.262437 45.471038 6.169520 15.691801 -3.375111 37.182257 9.194705 -2.158652 8.703046 2.441334 
0.172211 2.254641 0.974970 -122.249198 3.480094 89.825264 4.103957 -0.555843 -3.951844 -6.014089 -10.514432 10.659985 3.343290 11.619398 -20.771264 0.000000 -0.000000 0.000000 -11.091646 -2.706284 -19.310730 4.829309 5.313036 18.900030 15.771437 3.046082 -0.482212 0.000000 -0.000000 0.000000 -1.111938 -0.017224 10.452861 -0.717780 1.032034 -4.264029 0.125547 1.661993 -1.391336 0.851394 14.249225 1.848339 -0.666733 11.040105 7.561814 -24.966559 4.484230 -2.011321 -46.298531 -7.958577 4.642750 13.624341 -26.063203 -10.216817 17.130738 -9.580742 -3.200935 24.737928 -1.374062 3.043001 46.342492 6.085629 15.533642 -3.523392 36.461576 8.987561 -2.346529 8.582700 2.164477 
0.174048 2.273676 0.974227 -120.582584 3.299874 89.535678 5.045541 -0.774380 -3.397471 -5.835026 -11.709718 11.219987 2.737026 11.416262 -21.209426 0.000000 -0.000000 0.000000 -10.119260 -2.414613 -18.155569 4.847343 5.331917 19.955304 14.270579 2.155111 -4.019516 0.000000 -0.000000 0.000000 -1.340171 0.126224 10.446634 -0.715798 1.031485 -4.343604 0.044431 1.651698 -1.159012 1.283799 14.363239 1.750894 -0.910207 10.386536 7.998562 -24.865671 4.860500 -1.961106 -46.942077 -7.109780 4.480329 12.658369 -24.180593 -8.847203 16.419504 -9.316467 -3.231896 24.958569 -1.280500 2.864650 47.387418 6.215393 15.386756 -3.752713 35.712426 8.691896 -2.728806 8.436841 1.628902 
0.176661 2.293104 0.974445 -119.245532 3.264448 89.340009 6.152217 -0.856417 -2.975385 -5.540245 -12.809186 11.720901 2.264817 11.302150 -21.533571 0.000000 -0.000000 0.000000 -8.762067 -2.554232 -17.538381 4.975281 5.221921 21.284670 12.627322 1.220520 -7.018901 0.000000 -0.000000 0.000000 -1.523086 0.291894 10.429746 -0.727301 1.077930 -4.440495 -0.029089 1.707769 -1.027231 1.679525 14.685593 1.553151 -1.024609 9.863045 8.524706 -24.723222 5.219261 -1.801967 -47.512647 -6.058121 4.107287 12.008858 -22.086924 -8.153969 15.762669 -8.518551 -3.518980 25.151486 -0.974436 2.751571 48.435957 6.500414 15.309717 -3.913327 35.079998 8.445702 -3.148857 8.317686 0.873816 
0.179701 2.312117 0.975434 -118.125408 3.358462 89.259380 7.257176 -1.062322 -2.990021 -5.220248 -13.732501 12.682697 1.881438 11.455119 -21.962661 0.000000 -0.000000 0.000000 -7.591885 -2.766505 -16.986071 5.357825 4.775386 22.198158 11.542593 0.849341 -8.940647 0.000000 -0.000000 0.000000 -1.569572 0.440347 10.399374 -0.759405 1.068157 -4.497235 -0.127294 1.894462 -1.000510 1.951147 15.150244 1.251061 -1.099835 9.451400 9.016004 -24.655857 5.572544 -1.647895 -48.003803 -4.809804 3.709473 11.686771 -20.091272 -7.808161 15.223530 -7.790546 -3.617241 25.326135 -0.524150 2.694459 49.260784 6.887814 15.284257 -3.809332 34.724559 8.470576 -3.769782 8.289382 0.063615 
0.182777 2.329723 0.976918 -117.014909 3.519321 89.262271 8.208701 -1.556928 -3.637522 -4.980606 -14.172114 14.496987 1.480147 11.829522 -22.417880 0.000000 -0.000000 0.000000 -6.866182 -2.744870 -16.065472 6.007967 3.788403 22.068883 10.995207 0.800192 -9.850494 0.000000 -0.000000 0.000000 -1.405901 0.622040 10.417682 -0.856995 0.965336 -4.413976 -0.239236 2.056288 -1.080026 1.943065 15.458967 0.873647 -1.230618 9.264332 9.255685 -24.706949 5.786384 -1.437902 -48.523906 -3.429158 3.423116 11.774324 -18.472923 -7.796301 15.270320 -7.390408 -3.660528 25.426079 0.043218 2.704382 49.727044 7.331382 15.237127 -3.401326 34.767922 8.890944 -4.582472 8.301874 -0.638032 
0.185733 2.344860 0.978576 -115.749681 3.584432 89.372151 8.810240 -2.325250 -4.824799 -4.809529 -13.534909 16.807869 1.065915 12.396778 -22.621157 0.000000 -0.000000 0.000000 -6.477270 -2.641258 -14.977044 6.651209 2.572671 21.202215 10.647004 0.682628 -10.198072 0.000000 -0.000000 0.000000 -1.099326 0.823426 10.549066 -1.038556 0.792626 -4.254969 -0.417833 2.121442 -1.251136 1.646047 15.493730 0.436531 -1.405408 9.245184 9.281889 -24.895559 5.865741 -1.197451 -48.974490 -2.238556 3.280876 12.064074 -17.219377 -8.176686 15.555556 -7.142651 -3.857127 25.441058 0.610036 2.758682 49.850498 7.845087 15.235824 -2.942419 35.141867 9.483558 -5.177845 8.309178 -1.063732 
0.188611 2.357066 0.980151 -114.391565 3.470761 89.593874 8.987437 -2.944579 -6.206299 -4.603496 -11.382834 18.800903 0.880817 13.229713 -22.419072 0.000000 -0.000000 0.000000 -6.239692 -2.712700 -14.149502 7.000392 1.416913 20.288536 10.438588 0.565052 -10.200389 0.000000 -0.000000 0.000000 -0.797613 1.054724 10.846558 -1.269230 0.637798 -4.209429 -0.635135 2.143737 -1.428480 1.151143 15.285332 0.008246 -1.631727 9.148594 9.237958 -25.039273 5.914302 -1.062866 -49.459615 -1.478875 3.223776 12.253095 -16.228905 -8.427360 15.443718 -7.006810 -4.061923 25.358769 1.056045 2.807257 49.722061 8.469593 15.265949 -2.658451 35.631349 10.015228 -5.352711 8.332280 -1.168286 
